<?xml version="1.0"?><svg width="640" height="480" xmlns="http://www.w3.org/2000/svg">
 <title>Airplane</title>
 <metadata id="metadata14719">image/svg+xml</metadata>
 <g>
  <title>Layer 1</title>
  <g transform="rotate(9.82734489440918 310.22903442382824,259.3740234375) " id="g14721">
   <g id="g14723">
    <path stroke-width="11" id="path14725" fill="#ffffff" stroke="#070101" d="m565.060913,192.545746c15.928101,6.722107 37.4198,6.722107 37.4198,25.228455c0,43.696136 -171.200012,69.750244 -177.576782,69.750244l-56.531738,130.284332c-3.992279,10.076904 -9.563538,12.610291 -15.944885,13.436096l-18.324707,1.683655l0,-90.757416l-35.824127,-33.630676c-3.987732,0 -27.093475,4.184448 -74.853363,4.184448c-55.744537,0 -70.879517,-2.505127 -74.861481,-2.505127l-6.357819,28.572083c-0.810349,5.058594 -14.348244,7.567444 -16.727776,4.204468l-28.677597,-40.348328c-5.563477,0 -19.902878,-1.65918 -19.902878,-6.721436c0,-6.702637 2.387154,-9.231598 5.571709,-10.907227l-60.52136,-59.688995c-3.970558,-4.189423 10.362902,-12.589264 23.089781,-5.891296l58.933372,29.413055l-3.9879,-48.745361l13.543228,-2.494049c4.77813,-0.850128 15.146263,6.726959 18.317238,10.061432l41.423584,47.074127l71.661835,-14.297577l-33.454956,-36.111023l-156.86245,-104.227386l13.518829,-10.934067c0,0 3.195839,-3.358643 14.338799,-3.358643l311.364105,127.7668l97.156677,-19.332306c3.977051,-0.85495 20.709167,-10.930878 40.611267,-10.930878c21.517578,0 21.517578,4.187836 33.459595,9.222595"/>
   </g>
  </g>
 </g>
</svg>